<?xml version="1.0" encoding="UTF-8"?> <!-- Generator: Adobe Illustrator 25.0.1, SVG Export Plug-In . SVG Version: 6.00 Build 0) --> <svg xmlns="http://www.w3.org/2000/svg" xmlns:xlink="http://www.w3.org/1999/xlink" version="1.1" id="Layer_1" x="0px" y="0px" viewBox="0 0 292.3 207.3" style="enable-background:new 0 0 292.3 207.3;" xml:space="preserve"> <style type="text/css"> .st0{opacity:0.3;fill:#54B7EC;} .st1{fill:#00273F;} .st2{fill:#014375;} .st3{fill:#D2E8FF;} .st4{fill:#FFFFFF;} .st5{fill:#FED95F;} .st6{fill:#54B7EC;} .st7{fill:#08AC6A;} .st8{opacity:0.3;fill:url(#SVGID_1_);} .st9{opacity:0.4;fill:url(#SVGID_2_);} .st10{fill:none;stroke:#FFFFFF;stroke-miterlimit:10;} .st11{opacity:0.7;fill:#54B7EC;} .st12{opacity:0.4;} .st13{opacity:0.2;fill:url(#SVGID_3_);} .st14{opacity:0.2;fill:none;stroke:#54B7EC;stroke-miterlimit:10;} .st15{clip-path:url(#SVGID_5_);} .st16{fill:none;stroke:#54B7EC;stroke-miterlimit:10;} .st17{fill:none;stroke:#014375;stroke-width:2;stroke-miterlimit:10;} </style> <g> <rect x="32.8" y="35.7" class="st0" width="107.6" height="8.3"></rect> </g> <rect x="90.5" y="170.9" class="st1" width="29" height="18.4"></rect> <rect x="42.5" y="100.2" class="st2" width="125" height="74.3"></rect> <rect x="48.5" y="106.7" class="st3" width="113" height="61.4"></rect> <rect x="23" y="189.3" class="st4" width="164" height="9.2"></rect> <rect x="83.6" y="184.8" class="st2" width="42.9" height="4.6"></rect> <rect x="62.1" y="47.9" class="st4" width="85.7" height="120.2"></rect> <g> <path class="st5" d="M62.1,54.7c0,0,0-3.1,0-6.8c0-3.8,4.5-6.8,10-6.8h65.7c5.5,0,10,3.1,10,6.8c0,3.8,0,6.8,0,6.8"></path> </g> <g> <g> <rect x="120.3" y="46.2" class="st4" width="4.3" height="4.3"></rect> <rect x="127.9" y="46.2" class="st4" width="4.3" height="4.3"></rect> <rect x="135.4" y="46.2" class="st4" width="4.3" height="4.3"></rect> </g> </g> <rect x="66.7" y="154.3" class="st6" width="76.6" height="8.5"></rect> <rect x="66.7" y="104.8" class="st3" width="22.6" height="18.5"></rect> <rect x="93.7" y="104.8" class="st3" width="22.6" height="18.5"></rect> <rect x="120.7" y="104.8" class="st3" width="22.6" height="18.5"></rect> <rect x="66.7" y="125.2" class="st3" width="22.6" height="1.8"></rect> <rect x="93.7" y="125.2" class="st3" width="22.6" height="1.8"></rect> <rect x="120.7" y="125.2" class="st3" width="22.6" height="1.8"></rect> <rect x="66.7" y="128.9" class="st3" width="22.6" height="1.8"></rect> <rect x="93.7" y="128.9" class="st3" width="22.6" height="1.8"></rect> <rect x="120.7" y="128.9" class="st3" width="22.6" height="1.8"></rect> <rect x="66.7" y="132.5" class="st3" width="11.3" height="1.8"></rect> <rect x="66.7" y="140.5" class="st3" width="76.6" height="1.8"></rect> <rect x="66.7" y="144.1" class="st3" width="76.6" height="1.8"></rect> <rect x="66.7" y="147.8" class="st3" width="38.3" height="1.8"></rect> <rect x="93.7" y="132.5" class="st3" width="11.3" height="1.8"></rect> <rect x="120.7" y="132.5" class="st3" width="11.3" height="1.8"></rect> <rect x="127" y="156.4" class="st4" width="13.4" height="4.3"></rect> <path class="st7" d="M113.7,189.4c0-5.1,5.1-9.2,11.4-9.2c6.3,0,11.4,4.1,11.4,9.2H113.7z"></path> <g> <rect x="195.7" y="119.9" class="st5" width="18.5" height="29.8"></rect> <linearGradient id="SVGID_1_" gradientUnits="userSpaceOnUse" x1="197.7487" y1="129.1769" x2="208.6644" y2="137.7376"> <stop offset="0.172" style="stop-color:#FF6D00"></stop> <stop offset="0.9946" style="stop-color:#FF6D00;stop-opacity:0"></stop> </linearGradient> <rect x="195.7" y="119.9" class="st8" width="18.5" height="29.8"></rect> </g> <g> <path class="st2" d="M151.4,217.5v-47.4c0-14.3,11.7-26,26-26h51.5c14.3,0,26,11.7,26,26v47.4"></path> </g> <path class="st5" d="M137.6,189.6c0,0-4.9-2.6-12.6-7.7c0,0-1.2-0.2-5.2,1.1c-2.8,0.9-4.9-2,2.9-6c8.5-4.3,8.3-2,14.3,1.9 c6,3.9,4.6,3,4.6,3L137.6,189.6z"></path> <polygon class="st5" points="155,193.9 141.8,182 136.5,188.9 143.3,199.7 "></polygon> <polygon class="st2" points="151.4,188.4 138.5,195.3 151.4,217.5 162.8,205.7 "></polygon> <linearGradient id="SVGID_2_" gradientUnits="userSpaceOnUse" x1="206.6474" y1="217.1312" x2="206.6474" y2="170.9002"> <stop offset="0" style="stop-color:#014375"></stop> <stop offset="0.9946" style="stop-color:#014375;stop-opacity:0"></stop> </linearGradient> <rect x="173.7" y="170.9" class="st9" width="65.9" height="46.2"></rect> <polygon class="st7" points="53.6,189.3 38.3,189.3 35.2,164.4 56.7,164.4 "></polygon> <polygon class="st4" points="56.7,160.7 56.7,157.1 35.2,157.1 35.2,160.7 33.4,160.7 33.4,164.4 58.5,164.4 58.5,160.7 "></polygon> <g> <path class="st1" d="M48.1,174.7c1.8,1.8,2.3,4.2,1.1,5.5c-1.2,1.2-3.7,0.7-5.5-1.1c-1.8-1.8-2.3-4.2-1.1-5.5 C43.9,172.4,46.3,172.9,48.1,174.7z"></path> <line class="st10" x1="43.8" y1="174.7" x2="48.1" y2="179"></line> </g> <g> <path class="st4" d="M197.3,217.5v-29.8c0-14.9,12.2-27,27-27h15.7c14.8,0,27,12.1,27,27v29.8"></path> </g> <g> <path class="st11" d="M193.2,8.9c-17.1,0-31,13.9-31,31c0,6.2,1.8,11.9,4.9,16.8l-1.5,5.4l-1.8,6.6l6.6-1.8l5.2-1.4 c5,3.4,11,5.4,17.5,5.4c17.1,0,31-13.9,31-31C224.2,22.8,210.3,8.9,193.2,8.9z"></path> </g> <g> <rect x="173.7" y="26.5" class="st5" width="39.5" height="20.5"></rect> <g> <path class="st5" d="M199.8,36.8c0,3.5-2.8,6.4-6.4,6.4c-3.5,0-6.4-2.8-6.4-6.4c0-3.5,2.8-6.4,6.4-6.4 C196.9,30.4,199.8,33.3,199.8,36.8z"></path> <path class="st5" d="M173.7,31.9c3,0,5.4-2.4,5.4-5.4h-5.4L173.7,31.9z"></path> <path class="st5" d="M213.2,31.9c-3,0-5.4-2.4-5.4-5.4h5.4V31.9z"></path> <path class="st5" d="M213.2,41.5c-3,0-5.4,2.4-5.4,5.4h5.4V41.5z"></path> <path class="st5" d="M173.7,41.5c3,0,5.4,2.4,5.4,5.4h-5.4L173.7,41.5z"></path> </g> <rect x="173.7" y="46.9" class="st5" width="39.5" height="8.7"></rect> <rect x="173.7" y="46.9" class="st5" width="39.5" height="2.3"></rect> <rect x="173.7" y="51.3" class="st5" width="39.5" height="2.3"></rect> <rect x="190.7" y="26.5" class="st2" width="5.3" height="29.1"></rect> </g> <g> <rect x="62.3" y="17.6" class="st11" width="11.3" height="18.1"></rect> </g> <g> <g> <rect x="82.3" y="8.6" class="st11" width="11.3" height="27.1"></rect> </g> <rect x="84.7" y="24.3" class="st6" width="6.4" height="9.3"></rect> <rect x="79.4" y="11.4" class="st0" width="17.2" height="2.9"></rect> </g> <g> <g> <rect x="48.3" y="10" class="st11" width="11.3" height="25.7"></rect> </g> <rect x="48.3" y="14.3" class="st0" width="11.3" height="3.3"></rect> <rect x="48.3" y="19.5" class="st0" width="11.3" height="3.3"></rect> <path class="st6" d="M57.1,30.5c0,1.7-1.4,3.1-3.1,3.1c-1.7,0-3.1-1.4-3.1-3.1c0-1.7,1.4-3.1,3.1-3.1 C55.7,27.3,57.1,28.7,57.1,30.5z"></path> </g> <g> <g> <rect x="112.2" y="34.2" class="st11" width="11.5" height="1.5"></rect> </g> <g> <path class="st11" d="M123,19.3h-5h-5c0,0-7.2,9.2,0,14.9h5h5C130.1,28.4,123,19.3,123,19.3z"></path> </g> <g class="st12"> <g> <g> <path class="st11" d="M126.2,16c-2.6,0.3-4.2,1.3-4.2,1.3c0.5-3.5,5.9-9.2,5.9-9.2c-3.6,0.4-7.1,4.3-7.1,4.3v-0.3 C120,5.8,118,1,118,1s-2,4.8-2.7,11.1v0.3c0,0-3.6-3.9-7.1-4.3c0,0,5.4,5.7,5.9,9.2c0,0-1.6-1-4.2-1.3c0,0,2.4,1.6,3.9,3.3h4.3 h4.3C123.7,17.6,126.2,16,126.2,16z"></path> </g> </g> </g> </g> <g> <g> <rect x="229.2" y="67.5" class="st0" width="32.6" height="36.7"></rect> </g> <rect x="234.7" y="72.1" class="st6" width="21.6" height="27.6"></rect> </g> <g> <g> <rect x="255" y="44" class="st0" width="16.3" height="18.4"></rect> </g> <rect x="258.8" y="47.5" class="st6" width="8.8" height="11.3"></rect> </g> <g> <g> <rect x="66.7" y="59.1" class="st6" width="76.6" height="39.2"></rect> <linearGradient id="SVGID_3_" gradientUnits="userSpaceOnUse" x1="105.0637" y1="98.3683" x2="105.0637" y2="59.1455"> <stop offset="0" style="stop-color:#014375"></stop> <stop offset="0.9946" style="stop-color:#014375;stop-opacity:0"></stop> </linearGradient> <rect x="66.7" y="59.1" class="st13" width="76.6" height="39.2"></rect> </g> <g> <polygon class="st11" points="66.7,90 75.6,85.1 85.9,91 94.3,86.7 94.3,98.4 66.7,98.4 "></polygon> </g> <g> <polygon class="st11" points="109.8,90 120.7,82 134.8,91 143.3,86.7 143.3,98.4 109.8,98.4 "></polygon> </g> <path class="st6" d="M90.4,98.4c0-11.5,6.6-20.8,14.7-20.8c8.1,0,14.7,9.3,14.7,20.8"></path> <path class="st2" d="M98.3,98.4c0-5.6,3-10.1,6.8-10.1c3.7,0,6.8,4.5,6.8,10.1H98.3z"></path> <line class="st14" x1="105.1" y1="85.1" x2="105.1" y2="98.4"></line> <g> <defs> <rect id="SVGID_4_" x="66.7" y="59.1" width="76.6" height="39.2"></rect> </defs> <clipPath id="SVGID_5_"> <use xlink:href="#SVGID_4_" style="overflow:visible;"></use> </clipPath> <g class="st15"> <line class="st16" x1="94" y1="86.4" x2="81.6" y2="99.7"></line> <line class="st16" x1="116.1" y1="86.4" x2="128.5" y2="99.7"></line> </g> </g> <path class="st4" d="M86.6,70.9c0,2.4-1.9,4.3-4.3,4.3c-2.4,0-4.3-1.9-4.3-4.3c0-2.4,1.9-4.3,4.3-4.3 C84.7,66.6,86.6,68.5,86.6,70.9z"></path> </g> <path class="st5" d="M189.1,95.9c0,0-7.3,3.2-8.6,12.1c-1.3,8.9-2.3,10.4-3.7,12.1c-1.4,1.7,2.5,3,4.4,2.4c0,0,0.7,7.4,4.8,13.6 c0,0,1.1,3.2,5.4,2c4.3-1.2,9.3-0.9,11.8-6.5c2.5-5.6,6.5-15.8,3.5-19.9C203.7,107.8,195,92.8,189.1,95.9z"></path> <path class="st2" d="M197.3,89.2h-18.2c0,0,0.2,12.3,9.7,12.3h11.4V121h3.6l1.1-6.5l5.7,14.7h3.5c0,0,6.9-14.4,6.9-23 C221.2,91,208.7,89.2,197.3,89.2z"></path> <path class="st5" d="M203.6,118.4c0,0,0.7-5.3,4.5-4.3c4.1,1.1,1.8,8.4-4.5,10.4V118.4z"></path> <ellipse class="st2" cx="185.4" cy="113.6" rx="1" ry="1.8"></ellipse> <g> <path class="st2" d="M184.1,108.2c0.2-0.7,0.7-1.1,1.3-1.3c0.6-0.2,1.2,0.1,1.7,0.3c0.5,0.2,1,0.5,1.4,0.9c0.4,0.4,0.7,0.8,0.9,1.3 l-0.2,0.1c-0.4-0.2-0.8-0.5-1.2-0.6c-0.4-0.1-0.8-0.2-1.2-0.2c-0.4,0-0.7,0.3-1.1,0.2c-0.4-0.1-0.8-0.2-1.4-0.5L184.1,108.2z"></path> </g> <path class="st17" d="M184.4,129.7c0,0,4.3,0.8,6.1-1.8"></path> </svg> 